<svg width="24" height="24" viewBox="0 0 24 24" fill="none" xmlns="http://www.w3.org/2000/svg">
<path fill-rule="evenodd" clip-rule="evenodd" d="M20.2074 6.79303C20.3949 6.98056 20.5002 7.23487 20.5002 7.50003C20.5002 7.76519 20.3949 8.0195 20.2074 8.20703L10.7074 17.707C10.5199 17.8945 10.2656 17.9998 10.0004 17.9998C9.73524 17.9998 9.48094 17.8945 9.29341 17.707L4.79341 13.207C4.61125 13.0184 4.51045 12.7658 4.51273 12.5036C4.51501 12.2414 4.62018 11.9906 4.80559 11.8052C4.991 11.6198 5.24181 11.5146 5.50401 11.5124C5.7662 11.5101 6.0188 11.6109 6.20741 11.793L10.0004 15.586L18.7934 6.79303C18.9809 6.60556 19.2352 6.50024 19.5004 6.50024C19.7656 6.50024 20.0199 6.60556 20.2074 6.79303Z" fill="#FFB085"/>
</svg>
