<svg width="15" height="15" viewBox="0 0 15 15" fill="none" xmlns="http://www.w3.org/2000/svg">
<path fill-rule="evenodd" clip-rule="evenodd" d="M10.7095 0.9375C11.5989 0.9375 12.4519 1.29081 13.0808 1.9197C13.7097 2.54859 14.063 3.40155 14.063 4.29094C14.063 4.54406 13.9617 4.78781 13.7817 4.96781L13.2867 5.46375L11.4389 7.31156L6.69609 12.0544C6.30341 12.4469 5.80334 12.7143 5.2589 12.8231L2.78578 13.3181C2.63439 13.3485 2.47785 13.3409 2.33006 13.2962C2.18228 13.2515 2.04783 13.171 1.93865 13.0618C1.82947 12.9526 1.74895 12.8182 1.70424 12.6704C1.65952 12.5226 1.652 12.3661 1.68234 12.2147L2.17734 9.74156C2.28612 9.19712 2.5536 8.69706 2.94609 8.30437L7.6889 3.56156L10.0327 1.21781C10.2117 1.03875 10.4555 0.9375 10.7095 0.9375ZM8.5439 4.69594L3.94078 9.29906C3.74461 9.49528 3.61088 9.74514 3.5564 10.0172L3.20015 11.8013L4.98328 11.445C5.25566 11.3907 5.50587 11.2569 5.70234 11.0606L10.3055 6.4575C10.2636 6.00418 10.0645 5.57979 9.74258 5.25789C9.42067 4.93598 8.99628 4.73685 8.54296 4.695M11.4473 5.31187C11.1065 4.5217 10.4767 3.89157 9.68671 3.55031L10.8867 2.35031C11.8195 2.43469 12.563 3.17906 12.6473 4.11281L11.4473 5.31187Z" fill="#2D2926"/>
</svg>
